<svg xmlns="http://www.w3.org/2000/svg" width="39.786" height="39.786" viewBox="0 0 39.786 39.786">
  <path id="Path_31" data-name="Path 31" d="M371.288,18.7H335.9a2.2,2.2,0,0,0-2.2,2.2v35.39a2.2,2.2,0,0,0,2.2,2.2h19.049v-15.4h-5.182v-6.01h5.182V32.65c0-5.14,3.143-7.941,7.723-7.941a44.551,44.551,0,0,1,4.639.234v5.375h-3.185c-2.508,0-2.976,1.187-2.976,2.925v3.828H367.1l-.777,6.01h-5.174v15.4h10.139a2.2,2.2,0,0,0,2.2-2.2V20.9a2.2,2.2,0,0,0-2.2-2.2" transform="translate(-333.7 -18.7)" fill="#707070"/>
</svg>
