<svg xmlns="http://www.w3.org/2000/svg" width="39.787" height="39.965" viewBox="0 0 39.787 39.965">
  <g id="Group_24" data-name="Group 24" transform="translate(-180.128 -1556.445)">
    <path id="Path_13" data-name="Path 13" d="M543.7,268.561l2.808-10.264a19.8,19.8,0,1,1,7.7,7.514Zm10.991-6.336.6.351a16.389,16.389,0,1,0-5.592-5.416l.393.619-1.672,6.077Z" transform="translate(-363.572 1327.849)" fill="#707070"/>
    <path id="Path_14" data-name="Path 14" d="M575.612,255.232c-.125-.209-.451-.334-.944-.577s-2.934-1.446-3.385-1.613-.786-.251-1.112.251-1.279,1.6-1.571,1.939-.577.368-1.07.125a13.56,13.56,0,0,1-3.979-2.457,15.151,15.151,0,0,1-2.758-3.427.718.718,0,0,1,.2-1l.022-.014c.226-.226.493-.577.744-.836a3.613,3.613,0,0,0,.493-.836.905.905,0,0,0,0-.836c-.125-.242-1.112-2.683-1.521-3.669s-.836-.836-1.12-.836h-.945a1.814,1.814,0,0,0-1.321.619,5.565,5.565,0,0,0-1.73,4.129,9.694,9.694,0,0,0,2.014,5.124c.242.334,3.494,5.324,8.459,7.473a30.027,30.027,0,0,0,2.825,1.045,6.811,6.811,0,0,0,3.118.192c.953-.142,2.925-1.2,3.343-2.349a4.094,4.094,0,0,0,.242-2.449" transform="translate(-365.527 1325.74)" fill="#707070" fill-rule="evenodd"/>
  </g>
</svg>
