<svg id="Capa_1" data-name="Capa 1" xmlns="http://www.w3.org/2000/svg" viewBox="0 0 206.24 168.82"><defs><style>.cls-1{fill:#fff;}</style></defs><path class="cls-1" d="M132,129.65q-3.68-8.19-7.32-16.39c-1.9-4.25-3.81-8.5-5.85-13H99.72a1.39,1.39,0,0,0-1.35,1c-3.28,8.47-6.61,16.93-9.92,25.39-.84,2.14-1.68,4.28-2.54,6.5l0,.05,0,.1h.8c5,0,10,0,14.94,0a1.36,1.36,0,0,0,.93-.65c.55-1,1-2.09,1.52-3.1a1.31,1.31,0,0,1,.93-.61q3.93-.08,7.87,0a1.37,1.37,0,0,1,1,.6,19.55,19.55,0,0,1,1.36,2.8,1.44,1.44,0,0,0,1.16,1h17.32Zm-26.07-9.25,3-7.8,3.09,7.8Z"/><path class="cls-1" d="M67.71,100.22H36.53A11.4,11.4,0,0,0,29.12,103c-5,4.21-5.14,12.48-.26,16.33a11.31,11.31,0,0,0,7.07,2.24c3.45.06,6.9,0,10.35,0,.34,0,.82,0,1,.19s.47.87.32,1.12a1.48,1.48,0,0,1-1.12.49c-8.92,0-17.83,0-26.75.06a24.59,24.59,0,0,0-5.34.56c-4,.91-7.58,2.74-9.85,6.39-1.15,1.85-1.84,3.85-.85,6a15.1,15.1,0,0,0,1,1.68c-2.93,2-3.8,3-4.36,5.05A9.84,9.84,0,0,0,4,153.67a16.85,16.85,0,0,0,9.49,3.44c4.6.14,9.2.13,13.8.12a19.82,19.82,0,0,0,9.49-2.52A9.89,9.89,0,0,0,42.24,147c.07-.52.1-1,.16-1.67v-8.68q-11.31,0-22.62,0a4.59,4.59,0,0,1-1.56-.25,1.6,1.6,0,0,1-1.12-1.67c.06-.89.73-1.19,1.45-1.35a5.07,5.07,0,0,1,1.28-.1c10.61,0,21.22,0,31.82,0a10.88,10.88,0,0,0,3.49-.54c3.79-1.28,6.78-5.64,6.84-9.76a10.52,10.52,0,0,0-6.7-10,16.63,16.63,0,0,0-4.74-.84c-3.15-.13-6.32,0-9.49,0-1.07,0-1.59-.75-1-1.49a1.71,1.71,0,0,1,1.22-.41l24.7,0c.31,0,.63,0,1.07.07v23H81.48V110.17h1.28c2.55,0,5.1,0,7.65,0a1.18,1.18,0,0,0,1.29-.84c.86-2.08,1.77-4.16,2.66-6.24l.85-2,.05-.12.36-.8Zm-50.59,46a1.71,1.71,0,0,1,1.74-1.62,36.08,36.08,0,0,1,4.65,0h0a1.7,1.7,0,0,1,1.69,1.65,1.67,1.67,0,0,1-1.49,1.83,26.23,26.23,0,0,1-2.66.2h0a23.43,23.43,0,0,1-2.5-.22h-.07A1.62,1.62,0,0,1,17.12,146.25Z"/><path class="cls-1" d="M115.71,159.32v9.45H84.32V135.83h31.24v9.49H94.44a1.39,1.39,0,0,0-1.39,1.39h0a1.38,1.38,0,0,0,1.39,1.38h21.22v8.46H94.44a1.39,1.39,0,0,0,0,2.77Z"/><path id="Trazado_5" data-name="Trazado 5" class="cls-1" d="M81.45,135.76v9.92H67.92a20.52,20.52,0,0,0-2.47.18c-4.28.53-5.93,3.3-5.07,7.68a6.4,6.4,0,0,0,6.73,5.33H81.43v9.85a3.42,3.42,0,0,1-.63.09c-6.43,0-12.87,0-19.3,0a19,19,0,0,1-8.63-2.06,15.52,15.52,0,0,1-8.07-18.89A16.31,16.31,0,0,1,61,135.76c6.47,0,12.95,0,19.42,0Z"/><path id="Trazado_6" data-name="Trazado 6" class="cls-1" d="M150.54,168.73V135.8h14.28v23h15.73v9.88Z"/><path id="Trazado_7" data-name="Trazado 7" class="cls-1" d="M132.72,158.87h15.69v9.89h-30V135.82h14.27Z"/><path class="cls-1" d="M206.24,100.47v9.8H196.11v23.1H182.46a2.17,2.17,0,0,1-.67-.05v-19.1q0-.7,0-1.41v-.07a11.3,11.3,0,0,0-.32-2.57c-1-3.82-4-6.65-7.5-8.3a22.37,22.37,0,0,0-2.49-1c-.43-.14-.86-.28-1.3-.39Z"/><path class="cls-1" d="M177.2,133.23l-6.61-11.11,1.26-.8c6.3-4,8.3-14.19-.87-18.92a21,21,0,0,0-9.8-2.14H134.59l-10.1,0,.22.46c.11.24.23.48.32.7l.06.13,14.58,31.8H150.8v-9.9c1.58,0,3,0,4.51,0a1.43,1.43,0,0,1,1.45.84c1.64,2.75,3.34,5.46,5,8.21a1.57,1.57,0,0,0,1.55.86h14Zm-17.67-19.74c-3,.11-6,0-9,0V110h1.68c2.33,0,4.67,0,7,.1.92,0,1.79.26,2,1.38a.43.43,0,0,1,0,0A1.82,1.82,0,0,1,159.53,113.49Z"/><path class="cls-1" d="M124.49,100.22h-5.67l-.06-.13h0c-.27-.56-.49-1-.68-1.44a.93.93,0,0,0-1.15-.62l-.15.06c-1.61.48-2.38.18-3.09-1.27-3-6.14-5.93-12.29-8.9-18.43-.29-.62-.18-1,.46-1.28,3.15-1.48,6.29-3,9.54-4.55.38.76.75,1.48,1.1,2.21l7.92,16.52c.93,1.95.81,2.39-.82,3.87a1.28,1.28,0,0,0-.27,1.17c.2.47.42.93.64,1.39l0,0,1.07,2.33Z"/><path class="cls-1" d="M144.87,148.39c-.07,1.21-.55,1.42-1.62.76a12.34,12.34,0,0,1-4.69-5.37c-1-2.14-2.07-4.27-3.11-6.42l0-.09-1.15-2.56-.62-1.38h6l.64,1.38h0c.34.74.58,1.3.85,1.84.82,1.7,1.55,3.44,2.5,5.06A11.77,11.77,0,0,1,144.87,148.39Z"/><path id="Trazado_3" data-name="Trazado 3" class="cls-1" d="M149.46,47.08c.2,3.47.24,6.92.62,10.33A118.21,118.21,0,0,0,159.49,92a3.43,3.43,0,0,1,.34,1.54A1.49,1.49,0,0,1,158.45,95a1.61,1.61,0,0,1-1.88-1.09c-1.82-4.84-3.86-9.6-5.41-14.53a103.6,103.6,0,0,1-5-30.4c0-.58,0-1.15,0-1.72a.46.46,0,0,0-.06-.16,49.2,49.2,0,0,1-5-.5c-11.19-2.19-19.84-8.05-25.54-18-2.26-4-4.35-8-6.62-12A25.78,25.78,0,0,0,95,4.64a15.58,15.58,0,0,0-3.87-.85,5.33,5.33,0,0,0-5.39,3.06c-1.46,2.69-1.65,5.67-1.78,8.72.22.06.44.1.67.14a8.24,8.24,0,0,1,7.17,4.78c1.86,3.73,3.63,7.51,5.43,11.26s3.58,7.53,5.42,11.26c.46.94.34,1.41-.66,1.77A17.73,17.73,0,0,0,99.48,46a2.49,2.49,0,0,0-1.14,3.22,2.28,2.28,0,0,0,3,1.12l.07,0c1.26-.51,2.5-1.09,3.87-1.7,1,2.06,2,4.12,2.91,6.2.07.16-.19.61-.4.71-4.2,2-8.42,4-12.63,6.07-.79.39-1-.16-1.29-.68-1.24-2.59-2.46-5.19-3.7-7.78Q86.29,45,82.35,36.83c-.57-1.17-.53-1.27.67-1.87.68-.33,1.37-.63,2-1a2.53,2.53,0,0,0,1.47-3.25l-.06-.13a2.55,2.55,0,0,0-3.46-1l-.06,0c-.78.37-1.58.69-2.34,1.1s-1.09.31-1.4-.48c-.79-2-2.12-3.76-2.24-6a7.73,7.73,0,0,1,2.63-6.65,2.27,2.27,0,0,0,.55-1.51c.17-3.76.57-7.41,2.33-10.86C84.78.72,89-.66,93.26.28,101.9,2.19,108.08,7.4,112.39,15c2.61,4.59,5.08,9.26,7.79,13.79A28.92,28.92,0,0,0,136.7,41.54a82.59,82.59,0,0,0,8.39,1.86c1,.22,1.47-.12,1.66-1.26,1.14-6.81,3.83-12.87,9.08-17.54a22.27,22.27,0,0,1,13-5.82A13.49,13.49,0,0,1,179,21.68a7.34,7.34,0,0,1,1.67,10,19.2,19.2,0,0,1-7.16,6.73c-6,3.36-12.11,6.63-19,7.92-1.54.29-3.12.45-5.06.71Zm.65-3.92c.77-.08,1.34-.11,1.9-.21a56,56,0,0,0,21-8.35,18.3,18.3,0,0,0,4.5-4.41c1.79-2.34,1.21-4.64-1.24-6.26a10.88,10.88,0,0,0-8.79-1.46c-7.23,1.66-12.1,6.17-15.11,12.82a27.58,27.58,0,0,0-2.23,7.87Z"/><line class="cls-1" x1="123.35" y1="97.72" x2="122.71" y2="96.33"/><path class="cls-1" d="M117.87,62.53a3.35,3.35,0,0,0-.32-1.55A3.4,3.4,0,0,0,113,59.35c-1.55.66-3.05,1.44-4.57,2.18l-14,6.89A2.57,2.57,0,0,0,93,70.51a3.43,3.43,0,0,0,.37,2.33,3.47,3.47,0,0,0,4.72,1.35q8.94-4.29,17.85-8.61a3.34,3.34,0,0,0,2-3ZM99.22,70.61s0,.07,0,.11a1.48,1.48,0,0,1-.9,1.11l-.13,0a1.4,1.4,0,0,1-.41.06h-.08a1.67,1.67,0,0,1-1.38-1.3v0s0-.09,0-.13v0a.08.08,0,0,1,0,0,1.44,1.44,0,0,1,1-1.36h0a1.84,1.84,0,0,1,.41,0h.06a1.46,1.46,0,0,1,1.4,1.35v.07A1.15,1.15,0,0,1,99.22,70.61ZM106,68.18h0a2,2,0,0,1-.52.07h0A1.5,1.5,0,0,1,104,67.13s0,0,0,0a2.64,2.64,0,0,1,0-.28,1.46,1.46,0,0,1,1.46-1.47h.05a1.45,1.45,0,0,1,1.42,1.4h0v0A1.45,1.45,0,0,1,106,68.18Zm8.52-4.83a.77.77,0,0,1,0,.15l0,.1a.56.56,0,0,1,0,.12l0,.09a.41.41,0,0,1,0,.09,1.06,1.06,0,0,1-.26.34.27.27,0,0,1-.08.07l-.07.06h0l-.14.09h0l-.19.08a.32.32,0,0,1-.09,0l-.18,0h0l-.2,0h-.16l-.1,0h0l-.11,0-.1,0-.18-.08-.07,0-.2-.14a.87.87,0,0,1-.11-.09l-.18-.22-.06-.09a1.53,1.53,0,0,1-.19-.73,1.48,1.48,0,0,1,1-1.38,1.43,1.43,0,0,1,.5-.09h.09a1.45,1.45,0,0,1,1.37,1.46A.91.91,0,0,1,114.48,63.35Z"/></svg>