<svg xmlns="http://www.w3.org/2000/svg" width="39.853" height="39.853" viewBox="0 0 39.853 39.853">
  <g id="Group_25" data-name="Group 25" transform="translate(-38 -1556.54)">
    <path id="Path_15" data-name="Path 15" d="M38.587,127.3c5.308,0,5.943,0,8.041.117a10.81,10.81,0,0,1,3.694.685,6.611,6.611,0,0,1,3.77,3.77,10.81,10.81,0,0,1,.685,3.694c.1,2.1.117,2.733.117,8.041s0,5.943-.117,8.041a10.81,10.81,0,0,1-.685,3.694,6.611,6.611,0,0,1-3.77,3.77,10.81,10.81,0,0,1-3.694.685c-2.1.1-2.725.117-8.041.117s-5.943,0-8.041-.117a10.81,10.81,0,0,1-3.694-.685,6.611,6.611,0,0,1-3.77-3.77,10.81,10.81,0,0,1-.685-3.694c-.1-2.1-.117-2.733-.117-8.041s0-5.943.117-8.041a10.81,10.81,0,0,1,.685-3.694,6.611,6.611,0,0,1,3.77-3.77,10.81,10.81,0,0,1,3.694-.685c2.1-.1,2.733-.117,8.041-.117m0-3.586c-5.4,0-6.077,0-8.2.117a14.617,14.617,0,0,0-4.831.928,10.111,10.111,0,0,0-5.851,5.851,14.616,14.616,0,0,0-.928,4.831c-.092,2.123-.117,2.8-.117,8.2s0,6.077.117,8.2a14.617,14.617,0,0,0,.928,4.831,10.111,10.111,0,0,0,5.851,5.851,14.617,14.617,0,0,0,4.831.928c2.123.092,2.8.117,8.2.117s6.077,0,8.2-.117a14.617,14.617,0,0,0,4.831-.928,10.111,10.111,0,0,0,5.851-5.851,14.617,14.617,0,0,0,.928-4.831c.092-2.123.117-2.8.117-8.2s0-6.077-.117-8.2a14.617,14.617,0,0,0-.928-4.831,10.111,10.111,0,0,0-5.851-5.851,14.617,14.617,0,0,0-4.831-.928c-2.123-.092-2.8-.117-8.2-.117" transform="translate(19.34 1432.83)" fill="#fff"/>
    <path id="Path_16" data-name="Path 16" d="M40.494,135.28a10.214,10.214,0,1,0,10.214,10.214A10.214,10.214,0,0,0,40.494,135.28m0,16.842a6.628,6.628,0,1,1,6.628-6.628,6.628,6.628,0,0,1-6.628,6.628" transform="translate(17.433 1430.931)" fill="#fff"/>
    <path id="Path_17" data-name="Path 17" d="M54.731,131.94a2.391,2.391,0,1,1-2.391,2.391,2.39,2.39,0,0,1,2.391-2.391" transform="translate(13.811 1431.479)" fill="#fff"/>
  </g>
</svg>
