<svg xmlns="http://www.w3.org/2000/svg" xmlns:xlink="http://www.w3.org/1999/xlink" width="227.914" height="238.965" viewBox="0 0 227.914 238.965">
  <defs>
    <clipPath id="clip-path">
      <rect id="Rectangle_7" data-name="Rectangle 7" width="182.788" height="198.417" fill="none"/>
    </clipPath>
  </defs>
  <g id="Group_7" data-name="Group 7" transform="matrix(-0.966, 0.259, -0.259, -0.966, 227.914, 191.656)" opacity="0.16">
    <g id="Group_5" data-name="Group 5" clip-path="url(#clip-path)">
      <path id="Path_27" data-name="Path 27" d="M176.488,41.99c-6.333-5.213-13.766-6.908-21.766-6.181-10.6.963-19.767,5.43-27.633,12.416-11.21,9.952-16.944,22.889-19.371,37.41-.41,2.441-1.363,3.146-3.551,2.68-5.978-1.271-12.112-2.077-17.9-3.952-14.922-4.831-27.08-13.614-35.227-27.223-5.785-9.658-11.062-19.619-16.626-29.411-7.03-12.38-16.4-21.8-28.666-27.364A4.051,4.051,0,1,0,2.356,7.725c10.621,5,18.713,13.038,24.679,23.428,4.845,8.433,9.3,17.091,14.125,25.538,12.159,21.282,30.6,33.781,54.483,38.456,3.491.682,7.106.737,10.6,1.073a1.443,1.443,0,0,1,.129.327c0,1.225-.037,2.45-.032,3.671.129,22.194,4.177,43.775,10.777,64.85,3.288,10.5,7.654,20.665,11.532,30.986a3.406,3.406,0,0,0,4.011,2.312,3.185,3.185,0,0,0,2.948-3.058,7.545,7.545,0,0,0-.741-3.288,252.751,252.751,0,0,1-20.057-73.8c-.811-7.286-.907-14.65-1.331-22.042,4.127-.566,7.484-.889,10.786-1.511,14.7-2.759,27.679-9.745,40.533-16.907a40.942,40.942,0,0,0,15.267-14.351c4.642-7.581,3.279-15.778-3.578-21.416m-3.233,18.146a38.919,38.919,0,0,1-9.612,9.409c-13.761,8.668-28.48,15.221-44.71,17.823-1.2.193-2.423.267-4.053.438a58.715,58.715,0,0,1,4.762-16.8c6.42-14.18,16.8-23.787,32.225-27.334a23.244,23.244,0,0,1,18.744,3.109c5.236,3.468,6.457,8.368,2.644,13.351" transform="translate(0 0)" fill="#04ba56"/>
    </g>
  </g>
</svg>
