<svg id="Group_4" data-name="Group 4" xmlns="http://www.w3.org/2000/svg" xmlns:xlink="http://www.w3.org/1999/xlink" width="220.172" height="194.361" viewBox="0 0 220.172 194.361">
  <defs>
    <clipPath id="clip-path">
      <rect id="Rectangle_6" data-name="Rectangle 6" width="220.172" height="194.361" fill="none"/>
    </clipPath>
  </defs>
  <g id="Group_4-2" data-name="Group 4" clip-path="url(#clip-path)">
    <path id="Path_1" data-name="Path 1" d="M438.965,365.323c.8.035,1.6.1,2.4.1q18.365.009,36.729.008a22.413,22.413,0,0,1,10.467,2.286c9.794,5.056,7.651,15.955.932,20.2-.418.264-.835.531-1.338.851l7.06,11.857c-.427.03-.684.065-.942.065-4.644,0-9.288-.01-13.932.013a1.666,1.666,0,0,1-1.657-.914c-1.732-2.941-3.55-5.831-5.3-8.764a1.518,1.518,0,0,0-1.543-.893c-1.561.066-3.126.02-4.814.02v10.538H455.124c.347.753.6,1.329.875,1.895.836,1.726,1.583,3.5,2.543,5.157a11.884,11.884,0,0,1,1.225,6.909c-.068,1.239-.558,1.452-1.644.774a12.583,12.583,0,0,1-4.777-5.463c-1.324-2.81-2.728-5.582-4.054-8.391a1.326,1.326,0,0,0-1.409-.861c-5.719.028-11.437,0-17.156.033a1.539,1.539,0,0,1-1.749-1.065,19.954,19.954,0,0,0-1.459-2.994,1.444,1.444,0,0,0-1.02-.641q-4.2-.076-8.4,0a1.409,1.409,0,0,0-.993.655c-.589,1.073-1.03,2.229-1.619,3.3a1.433,1.433,0,0,1-.993.694c-5.411.042-10.822.028-16.234.022a3.277,3.277,0,0,1-.53-.106c.928-2.379,1.826-4.688,2.73-6.995,3.54-9.03,7.1-18.054,10.6-27.1a1.478,1.478,0,0,1,1.67-1.111c6.217.042,12.435.022,18.652.022h1.47c-.289-.606-.524-1.064-.729-1.535a.989.989,0,0,0-1.386-.6c-1.721.509-2.545.193-3.3-1.354-3.181-6.553-6.327-13.123-9.5-19.681-.318-.658-.19-1.044.488-1.363,3.365-1.582,6.714-3.195,10.189-4.855.4.808.795,1.578,1.169,2.358q4.231,8.814,8.455,17.631c1,2.081.865,2.556-.875,4.131a1.4,1.4,0,0,0-.284,1.256c.561,1.34,1.258,2.623,1.9,3.927h-5.855c2.111,4.706,4.09,9.1,6.058,13.508,3.094,6.924,6.174,13.854,9.291,20.767.172.38.61.885.947.9,1.675.093,3.357.042,5.148.042-.134-.382-.211-.669-.331-.936Q447.776,385.214,441.3,370.8c-.811-1.812-1.561-3.651-2.34-5.477m28.18,14.15c3.012,0,5.984.067,8.95-.036a1.809,1.809,0,0,0,1.67-1.99c-.172-1.111-1.047-1.348-1.959-1.373-2.33-.063-4.662-.067-6.994-.092-.553-.006-1.107,0-1.667,0Zm-44.8-.434-2.882,7.451h5.825l-2.943-7.451" transform="translate(-306.039 -258.573)" fill="#04ba56"/>
    <path id="Path_2" data-name="Path 2" d="M47.746,502.308v9.262H45.254c-.061.664-.087,1.229-.167,1.787a10.585,10.585,0,0,1-5.841,8.185,21.214,21.214,0,0,1-10.127,2.689c-4.911.009-9.825.019-14.733-.129a18,18,0,0,1-10.135-3.671A10.528,10.528,0,0,1,.373,509.174c.6-2.217,1.525-3.3,4.654-5.392a16.675,16.675,0,0,1-1.1-1.791c-1.062-2.321-.318-4.46.909-6.43,2.426-3.9,6.209-5.851,10.522-6.824a26.879,26.879,0,0,1,5.7-.605c9.518-.061,19.037-.025,28.556-.056a1.586,1.586,0,0,0,1.2-.529c.151-.256-.086-.895-.347-1.191-.192-.217-.7-.206-1.069-.207-3.685-.014-7.37.037-11.054-.024a12.107,12.107,0,0,1-7.541-2.395c-5.213-4.1-5.067-12.939.273-17.432a12.215,12.215,0,0,1,8.16-2.919c8.367.017,16.734,0,25.1.009q18.192.021,36.383.064c.373,0,.746.034,1.276.059-.457,1.066-.862,2.007-1.266,2.949-.951,2.22-1.926,4.431-2.839,6.666a1.251,1.251,0,0,1-1.378.888c-2.724-.04-5.45-.017-8.175-.018H86.974v24.652H71.538V474.073c-.47-.032-.8-.074-1.137-.075q-13.184,0-26.368.016a1.833,1.833,0,0,0-1.305.437c-.607.793-.055,1.585,1.089,1.593,3.377.023,6.759-.086,10.131.051A17.251,17.251,0,0,1,59,477a11.239,11.239,0,0,1,7.163,10.69c-.072,4.4-3.268,9.045-7.308,10.412a11.92,11.92,0,0,1-3.721.577c-11.322.038-22.645.015-33.968.016a6.135,6.135,0,0,0-1.371.106c-.776.179-1.483.5-1.549,1.45a1.687,1.687,0,0,0,1.189,1.778,4.8,4.8,0,0,0,1.671.271q12.666.024,25.332.011h1.306M22.5,514.693a24.84,24.84,0,0,0,2.818-.2,1.771,1.771,0,0,0,1.578-1.947,1.8,1.8,0,0,0-1.82-1.74,39.7,39.7,0,0,0-4.927,0,1.812,1.812,0,0,0-1.845,1.714,1.721,1.721,0,0,0,1.549,1.948,23.524,23.524,0,0,0,2.648.234" transform="translate(0 -356.554)" fill="#04ba56"/>
    <path id="Path_3" data-name="Path 3" d="M433.917,50.263c.213,3.7.26,7.386.666,11.032a126.514,126.514,0,0,0,10.041,36.942,3.776,3.776,0,0,1,.37,1.648,1.593,1.593,0,0,1-1.476,1.53,1.7,1.7,0,0,1-2.007-1.158c-1.94-5.165-4.126-10.253-5.772-15.51a110.4,110.4,0,0,1-5.393-32.461c0-.612.012-1.225.015-1.837,0-.036-.027-.071-.065-.164-1.75-.169-3.559-.2-5.306-.537-11.954-2.34-21.187-8.6-27.271-19.25-2.415-4.228-4.647-8.561-7.072-12.783A27.526,27.526,0,0,0,375.776,4.95a16.5,16.5,0,0,0-4.13-.9,5.708,5.708,0,0,0-5.758,3.258c-1.557,2.876-1.754,6.06-1.9,9.311a6.107,6.107,0,0,0,.716.148,8.8,8.8,0,0,1,7.655,5.113c1.982,3.982,3.87,8.011,5.8,12.021s3.823,8.032,5.791,12.021c.492,1,.36,1.5-.708,1.89a19.22,19.22,0,0,0-2.682,1.316,2.668,2.668,0,0,0-1.214,3.441,2.439,2.439,0,0,0,3.308,1.165c1.348-.544,2.666-1.166,4.134-1.814,1.045,2.2,2.106,4.4,3.108,6.621.073.163-.2.647-.428.756-4.486,2.178-8.991,4.316-13.482,6.481-.846.408-1.109-.172-1.377-.731-1.327-2.765-2.63-5.542-3.958-8.308q-4.182-8.712-8.381-17.416c-.6-1.25-.568-1.364.72-2,.723-.355,1.463-.675,2.183-1.035a2.693,2.693,0,0,0,1.511-3.6,2.731,2.731,0,0,0-3.762-1.07c-.835.388-1.691.734-2.5,1.165-.721.383-1.156.333-1.49-.506-.846-2.123-2.268-4.025-2.4-6.421a8.262,8.262,0,0,1,2.815-7.1,2.471,2.471,0,0,0,.586-1.617c.182-4.005.6-7.909,2.487-11.587C364.87.768,369.391-.7,373.918.3,383.141,2.337,389.742,7.9,394.341,16c2.783,4.9,5.426,9.886,8.321,14.721A30.879,30.879,0,0,0,420.3,44.353a89.133,89.133,0,0,0,8.961,1.978c1.1.233,1.572-.121,1.776-1.342,1.214-7.27,4.085-13.746,9.7-18.727a23.774,23.774,0,0,1,13.833-6.214,14.432,14.432,0,0,1,10.9,3.092,7.843,7.843,0,0,1,1.791,10.722,20.48,20.48,0,0,1-7.643,7.181c-6.433,3.587-12.93,7.084-20.288,8.464-1.652.31-3.333.471-5.4.755m.7-4.188c.816-.087,1.427-.123,2.028-.22a59.663,59.663,0,0,0,22.382-8.922,19.475,19.475,0,0,0,4.81-4.709c1.909-2.493,1.3-4.947-1.323-6.683a11.635,11.635,0,0,0-9.383-1.556c-7.722,1.775-12.917,6.584-16.13,13.681a29.425,29.425,0,0,0-2.383,8.409" transform="translate(-274.327 0)" fill="#04ba56"/>
    <path id="Path_4" data-name="Path 4" d="M424.788,663.446h-33.5V628.277H424.63v10.518h-1.244c-2.725,0-5.455.109-8.172-.031a78.111,78.111,0,0,1-7.977-.838c-2.251-.35-4.217.558-6.252,1.135-.268.076-.337,1.131-.338,1.734a1.049,1.049,0,0,0,.652.735c2.63.7,5.221,1.326,8,.41a17.014,17.014,0,0,1,4.887-.55c3.484-.076,6.971-.023,10.544-.023v9.124h-1.266q-9.612.008-19.225.013a4.909,4.909,0,0,0-3.582,1.188,4.29,4.29,0,0,0,3.245,1.232q9.785-.028,19.571-.033h1.312Z" transform="translate(-301.082 -483.44)" fill="#04ba56"/>
    <path id="Path_5" data-name="Path 5" d="M243.892,627.908v10.6h-1.317c-4.376,0-8.752-.009-13.128.01a22.329,22.329,0,0,0-2.635.189c-4.572.566-6.34,3.528-5.416,8.2.721,3.642,3.468,5.689,7.179,5.693,5.065,0,10.13,0,15.293,0v10.517a4.986,4.986,0,0,1-.671.091c-6.871,0-13.742.007-20.612-.018a20.337,20.337,0,0,1-9.208-2.2,16.548,16.548,0,0,1-8.615-20.164,17.427,17.427,0,0,1,17.287-12.909c6.909-.02,13.818,0,20.728,0h1.115" transform="translate(-156.943 -483.152)" fill="#04ba56"/>
    <path id="Path_6" data-name="Path 6" d="M697.148,663.293V628.137h15.244v24.611h16.79v10.544Z" transform="translate(-536.434 -483.333)" fill="#04ba56"/>
    <path id="Path_7" data-name="Path 7" d="M566.093,652.825h16.749v10.556H550.857V628.219h15.236Z" transform="translate(-423.868 -483.395)" fill="#04ba56"/>
    <path id="Path_8" data-name="Path 8" d="M815.759,474.956v24.654H800.372v-24.5l-1.248-.192c-1.567-5.684-5.466-8.913-11.045-10.439h38.5v10.473Z" transform="translate(-606.403 -357.406)" fill="#04ba56"/>
    <path id="Path_9" data-name="Path 9" d="M457.065,277.175a3.563,3.563,0,0,1-2.1,3.25q-9.521,4.609-19.055,9.193a3.706,3.706,0,0,1-5.442-3.932,2.759,2.759,0,0,1,1.6-2.23q7.482-3.67,14.957-7.355c1.617-.793,3.223-1.618,4.879-2.321a3.617,3.617,0,0,1,5.159,3.4m-3.6.869a1.55,1.55,0,0,0-1.416-1.744c-.825.043-1.63.237-1.725,1.29a1.587,1.587,0,1,0,3.14.454m-16.3,7.553a1.77,1.77,0,0,0-1.717-1.539,1.713,1.713,0,0,0-1.425,1.689,1.765,1.765,0,0,0,1.666,1.471,1.64,1.64,0,0,0,1.477-1.621m8.146-3.5a1.761,1.761,0,0,0-1.6-1.907,1.508,1.508,0,0,0-1.552,1.5,1.6,1.6,0,0,0,1.6,1.6c.858-.023,1.455-.414,1.552-1.2" transform="translate(-331.193 -210.412)" fill="#04ba56"/>
    <path id="Path_10" data-name="Path 10" d="M527.988,796.3a17.72,17.72,0,0,0,.574,2.282A2.532,2.532,0,0,0,531,800.2a2.7,2.7,0,0,0,2.681-1.434,3.752,3.752,0,0,0,.238-.523c.244-.646.543-1.276,1.392-.986.868.3.89,1.054.584,1.714a5.8,5.8,0,0,1-1.315,1.971,5.446,5.446,0,0,1-8.272-1.871,7.105,7.105,0,0,1-.114-5.71,5.474,5.474,0,0,1,8.462-2.128,4.694,4.694,0,0,1,1.268,1.982,1.5,1.5,0,0,1-.623,1.26c-.217.141-.827-.253-1.218-.48-.173-.1-.239-.383-.355-.581a2.713,2.713,0,0,0-2.877-1.468,2.787,2.787,0,0,0-2.442,2.137,21.484,21.484,0,0,0-.42,2.214" transform="translate(-404.472 -607.897)" fill="#04ba56"/>
    <path id="Path_11" data-name="Path 11" d="M428.149,794.487c0-1.006,0-1.947,0-2.888,0-.723.188-1.38,1.022-1.381s1.023.672,1.024,1.384q0,4.6,0,9.206c0,.662-.151,1.363-.9,1.346-.458-.01-.9-.518-1.357-.8l.16-.272c-.067.006-.158-.014-.2.023a3.453,3.453,0,0,1-3.909.846,3.93,3.93,0,0,1-2.244-3.62c-.305-3.37,1.76-5.51,4.574-4.745a11,11,0,0,1,1.829.9m-.071,3.428a12.954,12.954,0,0,0-.311-1.426,1.869,1.869,0,0,0-1.977-1.424,1.745,1.745,0,0,0-1.7,1.6,6.057,6.057,0,0,0,.225,2.761,2.189,2.189,0,0,0,1.678,1.026,2.5,2.5,0,0,0,1.618-.986,4.1,4.1,0,0,0,.469-1.547" transform="translate(-324.498 -608.049)" fill="#04ba56"/>
    <path id="Path_12" data-name="Path 12" d="M257.763,806.808c-.358-.465-.634-1.176-1-1.228a7.666,7.666,0,0,0-2.293.271c-.119.021-.224.2-.309.328-.423.62-.915,1.394-1.684.6-.684-.706-.125-1.439.46-1.977,1.2-1.107,4.517-1.33,5.737-.262a3.436,3.436,0,0,1,.972,1.966c.249,1.692.336,3.41.417,5.121a1.169,1.169,0,0,1-.5.911,1.311,1.311,0,0,1-1.045-.094,2.681,2.681,0,0,1-.679-.693,19.667,19.667,0,0,1-3.014.919,2.532,2.532,0,0,1-2.988-2.046c-.2-1.344.591-2.336,2.192-2.734,1.076-.268,2.159-.507,3.238-.764a3.574,3.574,0,0,0,.5-.317m-.28,1.634a14.3,14.3,0,0,0-2.513.646c-.417.188-.647.789-.961,1.2.455.325.888.889,1.368.932,1.491.134,2.27-.924,2.106-2.781" transform="translate(-193.755 -618.534)" fill="#04ba56"/>
    <path id="Path_13" data-name="Path 13" d="M705.568,811.756a20.38,20.38,0,0,1-3.073.913,2.516,2.516,0,0,1-2.967-2.066c-.183-1.317.645-2.342,2.221-2.717,1.146-.272,2.3-.518,3.757-.845-.392-.62-.612-1.369-.957-1.432a7.386,7.386,0,0,0-2.3.18c-.151.022-.3.237-.4.393-.426.63-.939,1.384-1.682.577-.639-.694-.108-1.444.492-1.982,1.178-1.056,4.427-1.3,5.647-.293a3.323,3.323,0,0,1,1.026,1.931,52.1,52.1,0,0,1,.424,5.235,1.144,1.144,0,0,1-.514.891,1.306,1.306,0,0,1-1.034-.123,2.47,2.47,0,0,1-.633-.664m-.39-3.31a16.592,16.592,0,0,0-2.618.675,1.481,1.481,0,0,0-.79,1.152,1.56,1.56,0,0,0,1.073.942c1.54.3,2.509-.848,2.335-2.769" transform="translate(-538.246 -618.534)" fill="#04ba56"/>
    <path id="Path_14" data-name="Path 14" d="M334.029,808.9c-.091,1.108.3,1.943,1.147,2.185a5.306,5.306,0,0,0,2.28-.2c.265-.05.451-.439.723-.543a10.663,10.663,0,0,1,1.4-.345c-.086.513,0,1.164-.287,1.515-1.687,2.084-5.954,1.537-7.086-.91a4.78,4.78,0,0,1,.476-5.218,4.05,4.05,0,0,1,4.384-1.3,3.519,3.519,0,0,1,2.829,2.978c.231,1.2-.178,1.774-1.407,1.824-1.451.059-2.906.014-4.458.014m3.737-1.325c-.213-1.548-.855-2.18-2.02-2.1-1.021.069-1.608.784-1.68,2.1Z" transform="translate(-255.197 -618.598)" fill="#04ba56"/>
    <path id="Path_15" data-name="Path 15" d="M468.069,809.267a7.529,7.529,0,0,0,1.477,1.82,2.051,2.051,0,0,0,2.454-.361c.119-.1.235-.2.351-.3.457-.4,1.013-1.035,1.518-.382.218.281-.074,1.284-.442,1.633a4.525,4.525,0,0,1-4.639.821,3.65,3.65,0,0,1-2.65-3.16c-.637-3.633,1.995-6.2,5.414-5.243a3.528,3.528,0,0,1,2.659,2.881c.255,1.273-.151,1.821-1.453,1.889-1.186.062-2.378.016-3.568.025-.264,0-.528.035-.793.054l-.328.321m.283-1.7c.337.016.67.044,1,.046.905.006,1.81,0,2.724,0-.138-1.5-.684-2.125-1.791-2.158s-1.776.66-1.937,2.109" transform="translate(-358.605 -618.574)" fill="#04ba56"/>
    <path id="Path_16" data-name="Path 16" d="M772.806,808.926a2.1,2.1,0,0,0,3.3,2.053,4.136,4.136,0,0,0,.727-.559c.463-.438,1.035-.972,1.513-.289.2.283-.116,1.193-.469,1.546a4.453,4.453,0,0,1-4.516.91,3.668,3.668,0,0,1-2.783-3.048c-.766-3.612,1.892-6.325,5.341-5.422a3.508,3.508,0,0,1,2.616,2.5c.485,1.591.017,2.268-1.637,2.3-1.369.029-2.739.006-4.09.006m3.687-1.339c-.175-1.506-.75-2.115-1.878-2.1-1.1.017-1.71.709-1.813,2.1Z" transform="translate(-592.833 -618.609)" fill="#04ba56"/>
    <path id="Path_17" data-name="Path 17" d="M579.615,808.9c.036,1.149.4,2.076,1.335,2.233a6.9,6.9,0,0,0,2.455-.478c.1-.023.18-.139.264-.217.452-.42.992-1.017,1.55-.4.622.69-.036,1.283-.538,1.738a4.871,4.871,0,0,1-6.3-.349,5.014,5.014,0,0,1,.433-6.592,4.239,4.239,0,0,1,6.542,1.591c.6,1.684.112,2.435-1.646,2.468-1.336.025-2.673,0-4.1,0m3.744-1.339c-.054-1.417-.718-2.137-1.891-2.107-1.1.028-1.689.73-1.737,2.107Z" transform="translate(-444.256 -618.579)" fill="#04ba56"/>
    <path id="Path_18" data-name="Path 18" d="M644.97,811.793a4.357,4.357,0,0,1-.593.466,3.331,3.331,0,0,1-3.291.218,2.607,2.607,0,0,1-1.4-2.578c-.03-1.494-.006-2.989-.006-4.483,0-.718.188-1.361,1.023-1.39.906-.031,1.132.64,1.147,1.4.025,1.3.017,2.605.056,3.907.027.9.249,1.709,1.367,1.776a1.832,1.832,0,0,0,1.887-1.777c.077-1.068.039-2.144.054-3.217.005-.344-.093-.753.057-1.018a6.49,6.49,0,0,1,.979-1.093c.373.358.992.669,1.07,1.082a16.306,16.306,0,0,1,.089,2.862c.007,1.111,0,2.223,0,3.334,0,.681-.068,1.456-.909,1.453-.453,0-.9-.533-1.535-.942" transform="translate(-492.21 -618.657)" fill="#04ba56"/>
    <path id="Path_19" data-name="Path 19" d="M213.065,792.971c-.9,0-1.661.006-2.42,0-.657-.007-1.308-.136-1.313-.944,0-.778.592-1,1.276-1,2.414,0,4.827,0,7.241,0,.658,0,1.286.144,1.291.964s-.631.959-1.283.975c-.76.018-1.521,0-2.439,0,0,1.633,0,3.19,0,4.747q0,1.666,0,3.333c0,.842-.05,1.748-1.15,1.764s-1.2-.837-1.2-1.713c.012-2.26,0-4.52,0-6.78,0-.412,0-.823,0-1.355" transform="translate(-161.075 -608.672)" fill="#04ba56"/>
    <path id="Path_20" data-name="Path 20" d="M815.718,813.3a4.769,4.769,0,0,1-3.26-1.431c-.427-.529-.72-1.21-.044-1.724.651-.495,1.1-.041,1.472.542a2.087,2.087,0,0,0,2.595.908,1.28,1.28,0,0,0,.795-.822,1.234,1.234,0,0,0-.646-.935,22.612,22.612,0,0,0-2.287-.736c-1.626-.539-2.333-1.362-2.2-2.527a2.576,2.576,0,0,1,2.692-2.2,9.8,9.8,0,0,1,3.481.792,1.013,1.013,0,0,1,.428,1.7c-.6.608-1.111.112-1.681-.3a5.142,5.142,0,0,0-1.995-.79c-.242-.046-.79.435-.831.726-.036.258.383.729.7.857,1.095.441,2.3.643,3.339,1.176a2.181,2.181,0,0,1,.1,3.854,13.19,13.19,0,0,1-2.664.909" transform="translate(-624.819 -618.941)" fill="#04ba56"/>
    <path id="Path_21" data-name="Path 21" d="M623.01,796.314c0,1.455,0,2.91,0,4.365,0,.778-.115,1.547-1.113,1.529-.9-.016-1.075-.718-1.076-1.467q0-4.538,0-9.076c0-.763.22-1.429,1.116-1.425.838,0,1.058.661,1.068,1.363.021,1.57.007,3.14.005,4.71" transform="translate(-477.7 -608.066)" fill="#04ba56"/>
    <path id="Path_22" data-name="Path 22" d="M745.666,804.664a1.99,1.99,0,0,1,2.847-.4c.312.227.374.8.551,1.211-.386.151-.794.471-1.154.424-1.783-.232-2.184-.02-2.406,1.792a34.373,34.373,0,0,0-.12,3.558c-.013.766-.189,1.436-1.109,1.417-.843-.018-1.036-.649-1.035-1.374,0-1.956-.056-3.914.03-5.867a1.929,1.929,0,0,1,.778-1.441c.3-.153.948.372,1.617.675" transform="translate(-571.887 -618.524)" fill="#04ba56"/>
    <path id="Path_23" data-name="Path 23" d="M377.817,804.682c.929-.914,1.859-1.14,2.859-.409.316.231.388.8.571,1.207-.385.154-.793.48-1.151.432-1.778-.239-2.21-.009-2.42,1.773a34.459,34.459,0,0,0-.107,3.562c-.01.77-.192,1.427-1.107,1.426-.863,0-1.04-.642-1.042-1.359,0-2-.062-3.994.033-5.985a1.934,1.934,0,0,1,.874-1.371c.248-.137.867.4,1.49.723" transform="translate(-288.858 -618.529)" fill="#04ba56"/>
    <path id="Path_24" data-name="Path 24" d="M297.816,796.276q0,2.239,0,4.479c0,.751-.148,1.447-1.071,1.449s-1.073-.686-1.072-1.443q0-4.536,0-9.072c0-.756.16-1.455,1.068-1.453s1.086.685,1.084,1.448c0,1.531,0,3.062,0,4.594Z" transform="translate(-227.509 -608.062)" fill="#04ba56"/>
    <path id="Path_25" data-name="Path 25" d="M684.583,796.356c0,1.455,0,2.909,0,4.364,0,.747-.113,1.451-1.04,1.475s-1.106-.647-1.106-1.411q0-4.536,0-9.073c0-.746.128-1.473,1.04-1.482.97-.009,1.119.737,1.115,1.533-.008,1.531,0,3.063,0,4.594Z" transform="translate(-525.112 -608.057)" fill="#04ba56"/>
    <path id="Path_26" data-name="Path 26" d="M316.911,796.22q0,2.3,0,4.594c0,.719-.174,1.35-1.025,1.373-.922.024-1.115-.634-1.115-1.4q0-4.594,0-9.187c0-.72.188-1.365,1.025-1.381.893-.018,1.123.632,1.12,1.409,0,1.531,0,3.062,0,4.594" transform="translate(-242.204 -608.048)" fill="#04ba56"/>
  </g>
</svg>
